<svg width="1387" height="467" viewBox="0 0 1387 467" fill="none" xmlns="http://www.w3.org/2000/svg">
<circle cx="1212.46" cy="208.44" r="55.3265" fill="white" fill-opacity="0.1"/>
<path fill-rule="evenodd" clip-rule="evenodd" d="M1224.96 199.001C1224.39 194.609 1220.53 193.262 1215.72 193.006L1215.51 186.894L1211.79 187.022L1211.99 192.973C1211.01 193.006 1210.01 193.06 1209.02 193.114L1208.82 187.124L1205.1 187.251L1205.31 193.361C1204.5 193.405 1203.71 193.447 1202.94 193.474L1202.94 193.455L1197.81 193.629L1197.95 197.602C1197.95 197.602 1200.69 197.456 1200.65 197.508C1202.15 197.457 1202.68 198.314 1202.84 199.065L1203.08 206.027C1203.19 206.024 1203.32 206.024 1203.48 206.04L1203.08 206.054L1203.42 215.808C1203.37 216.284 1203.11 217.05 1202.06 217.088C1202.11 217.128 1199.36 217.18 1199.36 217.18L1198.77 221.649L1203.61 221.483C1204.16 221.465 1204.7 221.452 1205.24 221.44L1205.24 221.439C1205.58 221.431 1205.93 221.423 1206.27 221.414L1206.48 227.596L1210.2 227.47L1209.99 221.353C1211.01 221.34 1212 221.314 1212.96 221.28L1213.17 227.368L1216.89 227.24L1216.68 221.07C1222.92 220.497 1227.25 218.771 1227.59 212.88C1227.86 208.136 1225.57 206.102 1221.99 205.37C1224.11 204.196 1225.39 202.214 1224.96 199.001L1224.96 199.001ZM1220.21 212.396C1220.36 216.636 1213.69 216.771 1210.64 216.833C1210.37 216.838 1210.13 216.843 1209.92 216.85L1209.64 208.66C1209.89 208.652 1210.2 208.634 1210.55 208.614C1213.67 208.433 1220.06 208.063 1220.21 212.396L1220.21 212.396ZM1210.13 204.898C1212.67 204.852 1218.21 204.753 1218.08 200.901C1217.95 196.96 1212.62 197.284 1210.02 197.443C1209.73 197.461 1209.47 197.476 1209.26 197.484L1209.51 204.912C1209.69 204.906 1209.89 204.902 1210.13 204.898Z" fill="white" fill-opacity="0.3"/>
<circle cx="205.595" cy="208.44" r="60" fill="white" fill-opacity="0.1"/>
<g clip-path="url(#clip0)">
<path d="M214.758 201.529L220.955 192.711C215.898 185.255 207.355 180.347 197.688 180.347C182.198 180.347 169.595 192.949 169.595 208.44C169.595 223.93 182.198 236.533 197.688 236.533C207.256 236.533 215.722 231.725 220.797 224.398L222.004 204.86H216.488C214.775 204.86 213.775 202.927 214.758 201.529ZM200.773 221.634C200.773 221.634 200.805 221.632 199.803 221.632V224.892C199.803 226.06 198.857 227.007 197.688 227.007C196.52 227.007 195.573 226.06 195.573 224.892V221.632H194.259C191.642 221.614 189.157 220.421 187.44 218.36C186.692 217.463 186.814 216.129 187.712 215.382C188.574 214.664 189.838 214.747 190.598 215.549C190.629 215.582 190.661 215.617 190.69 215.652C191.607 216.753 192.917 217.391 194.284 217.402H200.731C200.745 217.403 200.759 217.403 200.773 217.403C202.664 217.403 204.197 215.872 204.197 213.979C204.197 212.091 202.66 210.555 200.772 210.555C199.384 210.555 196.082 210.555 194.604 210.555C190.384 210.555 186.951 207.122 186.951 202.901C186.951 198.651 190.398 195.224 194.652 195.248H195.573V191.988C195.573 190.82 196.521 189.873 197.688 189.873C198.857 189.873 199.803 190.82 199.803 191.988V195.248H200.58C203.606 195.269 206.404 196.83 208.062 199.423L208.094 199.474C208.723 200.458 208.434 201.765 207.45 202.394C206.502 202.998 205.179 202.785 204.497 201.7C203.629 200.344 202.119 199.491 200.555 199.478H194.646C194.632 199.478 194.617 199.476 194.605 199.476C192.712 199.476 191.181 201.008 191.181 202.901C191.181 204.789 192.717 206.325 194.605 206.325H200.772C204.992 206.325 208.427 209.758 208.427 213.979C208.427 218.194 205.016 221.634 200.773 221.634Z" fill="white" fill-opacity="0.3"/>
<path d="M237.899 200.63C236.685 200.63 235.715 201.655 235.789 202.876L237.497 230.534C237.572 231.751 236.605 232.78 235.386 232.78H226.768C225.549 232.78 224.582 231.75 224.657 230.533C225.433 217.942 224.396 234.764 226.365 202.876C226.439 201.654 225.469 200.63 224.254 200.63H220.56C221.371 199.476 228.418 189.448 230.5 186.485C230.782 186.085 231.374 186.085 231.655 186.485L241.595 200.63H237.899Z" fill="white" fill-opacity="0.3"/>
</g>
<circle cx="50.1313" cy="416.157" r="50" fill="white" fill-opacity="0.1"/>
<g clip-path="url(#clip1)">
<path d="M29.558 418.795L25.6815 422.792C24.932 423.564 24.9506 424.798 25.7234 425.548C26.1021 425.915 26.5914 426.098 27.0805 426.098C27.5893 426.098 28.0977 425.9 28.4798 425.506L32.3564 421.51C33.1059 420.737 33.0873 419.503 32.3145 418.754C31.5417 418.004 30.3077 418.023 29.558 418.795Z" fill="white" fill-opacity="0.3"/>
<path d="M38.5816 420.055C37.5052 420.055 36.6323 420.928 36.6323 422.004V439.159C36.6323 440.235 37.5051 441.108 38.5816 441.108H38.5817C39.6582 441.108 40.5311 440.235 40.5311 439.159L40.5309 422.004C40.5309 420.928 39.6582 420.055 38.5816 420.055Z" fill="white" fill-opacity="0.3"/>
<path d="M46.1842 415.767C45.1077 415.767 44.2349 416.64 44.2349 417.716V439.159C44.2349 440.235 45.1076 441.108 46.1842 441.108C47.2607 441.108 48.1335 440.235 48.1335 439.159V417.716C48.1334 416.64 47.2607 415.767 46.1842 415.767Z" fill="white" fill-opacity="0.3"/>
<path d="M69.2834 391.205H63.4354C62.3588 391.205 61.4861 392.078 61.4861 393.155C61.4861 394.231 62.3588 395.104 63.4354 395.104H68.5731L54.2596 409.414C53.8756 409.799 53.3731 410.017 52.8761 410.017C52.8657 410.017 52.855 410.017 52.8446 410.017C52.366 410.008 51.8768 409.788 51.503 409.414L49.2112 407.123C48.0892 406.001 46.5997 405.35 45.1244 405.338C45.1101 405.338 45.0958 405.338 45.0816 405.338C43.5546 405.338 42.0298 406.005 40.8903 407.174L36.7129 411.37C35.9533 412.133 35.9561 413.367 36.7191 414.127C37.0993 414.505 37.5968 414.695 38.0943 414.695C38.5946 414.695 39.0948 414.503 39.4757 414.121L43.6607 409.917C43.6664 409.911 43.672 409.905 43.6777 409.9C44.0847 409.48 44.6152 409.232 45.0925 409.237C45.5467 409.24 46.0559 409.48 46.4546 409.879L48.7464 412.171C49.8427 413.267 51.2724 413.887 52.7721 413.915C54.3316 413.944 55.8797 413.308 57.0165 412.171L71.2327 397.958V402.804C71.2327 403.88 72.1054 404.753 73.182 404.753C74.2586 404.753 75.1313 403.88 75.1313 402.804V397.053C75.1313 393.829 72.508 391.205 69.2834 391.205Z" fill="white" fill-opacity="0.3"/>
<path d="M30.8881 428.827C29.809 428.824 28.9321 429.697 28.9321 430.777V439.159C28.9321 440.235 29.8049 441.108 30.8814 441.108H30.8815C31.9581 441.108 32.8309 440.235 32.8309 439.159V430.777C32.8308 429.703 31.9622 428.831 30.8881 428.827Z" fill="white" fill-opacity="0.3"/>
<path d="M69.1861 407.872C68.1096 407.872 67.2368 408.745 67.2368 409.821V439.159C67.2368 440.235 68.1096 441.108 69.1861 441.108H69.1862C70.2627 441.108 71.1356 440.235 71.1356 439.159V409.821C71.1355 408.745 70.2628 407.872 69.1861 407.872Z" fill="white" fill-opacity="0.3"/>
<path d="M53.7862 418.203C52.7097 418.203 51.8369 419.076 51.8369 420.153V439.159C51.8369 440.235 52.7097 441.108 53.7862 441.108H53.7863C54.8628 441.108 55.7357 440.235 55.7357 439.159V420.153C55.7356 419.076 54.8629 418.203 53.7862 418.203Z" fill="white" fill-opacity="0.3"/>
<path d="M61.4788 414.5C60.405 414.504 59.5366 415.375 59.5366 416.449V439.159C59.5366 440.235 60.4094 441.108 61.4859 441.108H61.486C62.5625 441.108 63.4354 440.235 63.4354 439.159V416.449C63.4352 415.37 62.5581 414.496 61.4788 414.5Z" fill="white" fill-opacity="0.3"/>
</g>
<circle cx="402.605" cy="50.5737" r="50" fill="white" fill-opacity="0.1"/>
<path d="M413.543 59.9487H407.293V72.4487H413.543V59.9487ZM411.98 69.3237H408.855V67.7612H411.98V69.3237ZM411.98 66.1987H408.855V64.6362H411.98V66.1987ZM411.98 63.0737H408.855V61.5112H411.98V63.0737Z" fill="white" fill-opacity="0.3"/>
<path d="M397.137 69.3237H400.262V72.4487H397.137V69.3237Z" fill="white" fill-opacity="0.3"/>
<path d="M407.293 56.8237H415.105V58.3862H407.293V56.8237Z" fill="white" fill-opacity="0.3"/>
<path d="M401.824 69.3237V72.4487H405.73V53.6987H391.668V72.4487H395.574V69.3237H394.793V67.7612H402.605V69.3237H401.824ZM394.793 66.1987H393.23V64.6362H394.793V66.1987ZM394.793 63.0737H393.23V61.5112H394.793V63.0737ZM394.793 59.9487H393.23V58.3862H394.793V59.9487ZM394.793 56.8237H393.23V55.2612H394.793V56.8237ZM397.918 66.1987H396.355V64.6362H397.918V66.1987ZM397.918 63.0737H396.355V61.5112H397.918V63.0737ZM397.918 59.9487H396.355V58.3862H397.918V59.9487ZM397.918 56.8237H396.355V55.2612H397.918V56.8237ZM401.043 66.1987H399.48V64.6362H401.043V66.1987ZM401.043 63.0737H399.48V61.5112H401.043V63.0737ZM401.043 59.9487H399.48V58.3862H401.043V59.9487ZM401.043 56.8237H399.48V55.2612H401.043V56.8237ZM402.605 55.2612H404.168V56.8237H402.605V55.2612ZM402.605 58.3862H404.168V59.9487H402.605V58.3862ZM402.605 61.5112H404.168V63.0737H402.605V61.5112ZM402.605 64.6362H404.168V66.1987H402.605V64.6362Z" fill="white" fill-opacity="0.3"/>
<path d="M423.376 33.3862L419.793 29.8034V32.605C419.793 32.8122 419.875 33.0109 420.022 33.1574C420.168 33.3039 420.367 33.3862 420.574 33.3862H423.376Z" fill="white" fill-opacity="0.3"/>
<path d="M382.293 56.8237H390.105V58.3862H382.293V56.8237Z" fill="white" fill-opacity="0.3"/>
<path d="M390.105 72.4487V59.9487H383.855V72.4487H390.105ZM385.418 61.5112H388.543V63.0737H385.418V61.5112ZM385.418 64.6362H388.543V66.1987H385.418V64.6362ZM385.418 67.7612H388.543V69.3237H385.418V67.7612Z" fill="white" fill-opacity="0.3"/>
<path d="M390.105 50.5737H407.293V52.1362H390.105V50.5737Z" fill="white" fill-opacity="0.3"/>
<path d="M424.48 68.5425V34.9487H420.574C419.953 34.9487 419.356 34.7018 418.917 34.2623C418.477 33.8227 418.23 33.2266 418.23 32.605V28.6987H395.574C395.367 28.6987 395.168 28.781 395.022 28.9276C394.875 29.0741 394.793 29.2728 394.793 29.48V49.0112H408.074C408.281 49.0112 408.48 49.0935 408.627 49.2401C408.773 49.3866 408.855 49.5853 408.855 49.7925V52.9175C408.855 53.1247 408.773 53.3234 408.627 53.4699C408.48 53.6164 408.281 53.6987 408.074 53.6987H407.293V55.2612H415.887C416.094 55.2612 416.293 55.3435 416.439 55.4901C416.586 55.6366 416.668 55.8353 416.668 56.0425V59.1675C416.668 59.3747 416.586 59.5734 416.439 59.7199C416.293 59.8664 416.094 59.9487 415.887 59.9487H415.105V69.3237H423.699C423.906 69.3237 424.105 69.2414 424.252 69.0949C424.398 68.9484 424.48 68.7497 424.48 68.5425ZM413.543 35.73H415.105V37.2925H413.543V35.73ZM410.418 35.73H411.98V37.2925H410.418V35.73ZM407.293 35.73H408.855V37.2925H407.293V35.73ZM400.262 35.73H401.824C402.446 35.73 403.042 35.9769 403.481 36.4164C403.921 36.856 404.168 37.4521 404.168 38.0737C404.168 38.6953 403.921 39.2915 403.481 39.731C403.042 40.1706 402.446 40.4175 401.824 40.4175V41.1987H400.262V40.4175C399.64 40.4175 399.044 40.1706 398.604 39.731C398.165 39.2915 397.918 38.6953 397.918 38.0737H399.48C399.48 38.2809 399.563 38.4796 399.709 38.6262C399.856 38.7727 400.055 38.855 400.262 38.855H401.824C402.031 38.855 402.23 38.7727 402.377 38.6262C402.523 38.4796 402.605 38.2809 402.605 38.0737C402.605 37.8665 402.523 37.6678 402.377 37.5213C402.23 37.3748 402.031 37.2925 401.824 37.2925H400.262C399.64 37.2925 399.044 37.0456 398.604 36.606C398.165 36.1665 397.918 35.5703 397.918 34.9487C397.918 34.3271 398.165 33.731 398.604 33.2914C399.044 32.8519 399.64 32.605 400.262 32.605V31.8237H401.824V32.605C402.446 32.605 403.042 32.8519 403.481 33.2914C403.921 33.731 404.168 34.3271 404.168 34.9487H402.605C402.605 34.7415 402.523 34.5428 402.377 34.3963C402.23 34.2498 402.031 34.1675 401.824 34.1675H400.262C400.055 34.1675 399.856 34.2498 399.709 34.3963C399.563 34.5428 399.48 34.7415 399.48 34.9487C399.48 35.1559 399.563 35.3546 399.709 35.5012C399.856 35.6477 400.055 35.73 400.262 35.73ZM407.293 40.4175V38.855H415.105V40.4175H407.293ZM421.355 51.355H411.98V49.7925H421.355V51.355ZM421.355 48.23H411.98V46.6675H421.355V48.23ZM421.355 45.105H411.98V43.5425H421.355V45.105Z" fill="white" fill-opacity="0.3"/>
<path d="M379.168 72.4487H418.23V74.0112H379.168V72.4487Z" fill="white" fill-opacity="0.3"/>
<circle cx="1336.46" cy="416.157" r="50" fill="white" fill-opacity="0.1"/>
<g clip-path="url(#clip2)">
<path d="M1341.38 403.975C1341.18 403.772 1340.91 403.657 1340.63 403.657H1332.3C1332.01 403.657 1331.74 403.772 1331.55 403.975C1330.02 405.552 1316.67 419.561 1316.67 425.532C1316.67 434.148 1325.55 441.157 1336.46 441.157C1347.38 441.157 1356.25 434.148 1356.25 425.532C1356.25 419.561 1342.9 405.552 1341.38 403.975Z" fill="white" fill-opacity="0.3"/>
<path d="M1349.74 392.55C1348.01 390.588 1343.49 393.163 1340.9 394.907C1339.71 393.219 1337.96 391.157 1336.46 391.157C1334.97 391.157 1333.21 393.219 1332.02 394.907C1329.44 393.161 1324.91 390.586 1323.18 392.55C1322.7 393.104 1322.47 393.834 1322.56 394.563C1322.89 398.421 1330.75 404.798 1331.64 405.511C1331.83 405.66 1332.06 405.741 1332.3 405.74H1340.63C1340.87 405.74 1341.09 405.66 1341.28 405.513C1342.17 404.798 1350.03 398.43 1350.36 394.565C1350.45 393.836 1350.22 393.106 1349.74 392.55Z" fill="white" fill-opacity="0.3"/>
<path d="M1344.8 405.74H1328.13C1327.55 405.74 1327.09 405.274 1327.09 404.698C1327.09 404.123 1327.55 403.657 1328.13 403.657H1344.8C1345.37 403.657 1345.84 404.123 1345.84 404.698C1345.84 405.274 1345.37 405.74 1344.8 405.74Z" fill="white" fill-opacity="0.3"/>
<path d="M1336.46 432.823C1333.98 433.068 1331.73 431.388 1331.25 428.944C1331.21 428.369 1331.63 427.863 1332.21 427.815C1332.78 427.767 1333.29 428.194 1333.34 428.769C1333.43 429.857 1334.83 430.74 1336.46 430.74C1338.16 430.74 1339.59 429.786 1339.59 428.657C1339.59 427.64 1338.6 426.99 1336.48 426.594L1336.25 426.552C1332.87 425.927 1331.25 424.546 1331.25 422.407C1331.58 419.839 1333.89 417.994 1336.46 418.24C1338.94 417.995 1341.2 419.676 1341.67 422.119C1341.72 422.694 1341.29 423.2 1340.72 423.248C1340.14 423.297 1339.64 422.869 1339.59 422.294C1339.5 421.207 1338.1 420.323 1336.46 420.323C1334.77 420.323 1333.34 421.278 1333.34 422.407C1333.34 423.423 1334.33 424.073 1336.45 424.469L1336.68 424.513C1340.05 425.138 1341.68 426.517 1341.68 428.659C1341.35 431.228 1339.04 433.073 1336.46 432.823Z" fill="white" fill-opacity="0.3"/>
<path d="M1336.46 434.907C1335.89 434.907 1335.42 434.44 1335.42 433.865V417.198C1335.42 416.623 1335.89 416.157 1336.46 416.157C1337.04 416.157 1337.5 416.623 1337.5 417.198V433.865C1337.5 434.44 1337.04 434.907 1336.46 434.907Z" fill="white" fill-opacity="0.3"/>
</g>
<circle cx="1036.35" cy="58.3862" r="50" fill="white" fill-opacity="0.1"/>
<g clip-path="url(#clip3)">
<path d="M1060.15 64.1324L1058.21 62.7958L1049.47 75.4574C1048.08 77.4688 1045.34 77.9809 1043.33 76.6088L1015.07 57.1095L1013.51 59.3712C1012.83 60.3537 1013.05 61.7379 1014.02 62.4094L1046.08 84.5244C1047.05 85.1959 1048.42 84.9117 1049.1 83.9292L1060.68 67.1521C1061.35 66.1696 1061.12 64.8196 1060.15 64.1324Z" fill="white" fill-opacity="0.3"/>
<path d="M1026.85 36.578C1026.29 36.1879 1025.52 36.3287 1025.13 36.8941C1024.74 37.4596 1024.88 38.2271 1025.45 38.6172C1026.01 39.0073 1026.78 38.8665 1027.17 38.3011C1027.56 37.7357 1027.42 36.9681 1026.85 36.578Z" fill="white" fill-opacity="0.3"/>
<path d="M1045.82 68.3145C1045.26 67.9244 1044.49 68.0652 1044.1 68.6307C1043.71 69.1961 1043.85 69.9636 1044.42 70.3537C1044.99 70.7346 1045.75 70.5938 1046.14 70.0376C1046.53 69.4722 1046.39 68.7047 1045.82 68.3145Z" fill="white" fill-opacity="0.3"/>
<path d="M1040.94 45.7897C1036.67 42.8478 1030.82 43.9226 1027.87 48.1864C1024.93 52.4502 1026 58.3023 1030.27 61.2505C1034.54 64.1831 1040.39 63.1175 1043.33 58.8538C1046.28 54.59 1045.2 48.7315 1040.94 45.7897ZM1032.65 59.5829L1032.4 59.9537C1032.04 60.4635 1031.34 60.5928 1030.83 60.2411C1030.32 59.8893 1030.19 59.1844 1030.54 58.6746L1030.85 58.2297C1029.76 56.8191 1029.7 54.8627 1030.72 53.3953C1030.73 53.3861 1030.73 53.3861 1030.74 53.3768C1031.08 52.8763 1031.77 52.7498 1032.27 53.0952C1032.78 53.4469 1032.91 54.1518 1032.56 54.6616C1031.98 55.5051 1032.19 56.6486 1033.02 57.2398C1033.86 57.8311 1035.02 57.6184 1035.61 56.7813C1036.2 55.9442 1035.99 54.7851 1035.15 54.1938C1033.68 53.177 1033.03 51.3362 1033.55 49.6296C1034.22 47.4598 1036.5 46.2312 1038.68 46.8844L1038.92 46.5321C1039.27 46.0223 1039.98 45.893 1040.49 46.2448C1041 46.5965 1041.13 47.3014 1040.77 47.8112L1040.58 48.0893C1041.84 49.5025 1041.96 51.6005 1040.88 53.1513C1040.51 53.664 1039.81 53.784 1039.29 53.4259C1038.78 53.0742 1038.66 52.3693 1039.01 51.8595C1039.59 51.016 1039.38 49.8568 1038.53 49.2748C1038.52 49.2684 1038.51 49.262 1038.51 49.2556C1037.66 48.6829 1036.5 48.9113 1035.93 49.7611C1035.35 50.611 1035.58 51.7673 1036.43 52.34C1037.99 53.4144 1038.61 55.4048 1037.95 57.1779C1037.15 59.308 1034.78 60.3822 1032.65 59.5829Z" fill="white" fill-opacity="0.3"/>
<path d="M1058.68 54.363L1026.62 32.2481C1025.65 31.5765 1024.28 31.8608 1023.6 32.8433L1012.03 49.6203C1011.35 50.6029 1011.58 51.9529 1012.56 52.6401L1044.61 74.755C1045.6 75.4144 1046.94 75.1609 1047.62 74.1783L1059.19 57.4013C1059.87 56.4188 1059.65 55.0345 1058.68 54.363ZM1024.16 40.4803C1022.58 39.3867 1022.18 37.2094 1023.27 35.6243C1024.36 34.0393 1026.54 33.6399 1028.13 34.7335C1029.71 35.8271 1030.11 38.0044 1029.02 39.5894C1027.92 41.1745 1025.75 41.5739 1024.16 40.4803ZM1028.99 63.1043C1023.69 59.4462 1022.37 52.1907 1026.03 46.8981C1029.68 41.6054 1036.93 40.2749 1042.22 43.9266C1047.51 47.5876 1048.84 54.8245 1045.19 60.1236C1041.54 65.4255 1034.29 66.7624 1028.99 63.1043ZM1043.14 72.2076C1041.55 71.114 1041.15 68.9366 1042.25 67.3516C1043.34 65.7666 1045.52 65.3672 1047.1 66.4608C1048.68 67.5636 1049.09 69.7317 1047.99 71.3167C1046.9 72.9017 1044.72 73.3012 1043.14 72.2076Z" fill="white" fill-opacity="0.3"/>
</g>
<defs>
<clipPath id="clip0">
<rect width="72" height="72" fill="white" transform="translate(169.595 172.44)"/>
</clipPath>
<clipPath id="clip1">
<rect width="50" height="50" fill="white" transform="translate(25.1313 391.157)"/>
</clipPath>
<clipPath id="clip2">
<rect width="50" height="50" fill="white" transform="translate(1311.46 391.157)"/>
</clipPath>
<clipPath id="clip3">
<rect width="50" height="50" fill="white" transform="translate(1029.97 23.6113) rotate(34.6042)"/>
</clipPath>
</defs>
</svg>
